<svg width="110" height="110" viewBox="0 0 110 110" fill="none" xmlns="http://www.w3.org/2000/svg">
<path d="M54.2292 23.8042C48.2899 23.8042 42.4839 25.5654 37.5455 28.8652C32.607 32.1649 28.758 36.855 26.4851 42.3422C24.2122 47.8295 23.6175 53.8675 24.7763 59.6928C25.935 65.518 28.795 70.8689 32.9948 75.0686C37.1946 79.2684 42.5454 82.1285 48.3707 83.2872C54.1959 84.4459 60.2339 83.8512 65.7212 81.5783C71.2085 79.3054 75.8985 75.4564 79.1983 70.518C82.498 65.5796 84.2592 59.7736 84.2592 53.8342C84.2592 45.8697 81.0954 38.2315 75.4636 32.5998C69.8319 26.9681 62.1937 23.8042 54.2292 23.8042ZM49.9612 66.2752H41.6672V57.9812H49.9612V66.2752ZM66.5492 57.9812H58.2992V49.6872H49.9612V41.3932H66.5492V49.6872V57.9812Z" fill="#FF735A"/>
<path d="M7.58887 70.169C8.63116 73.1387 9.95729 76.0009 11.5489 78.716L12.5609 78.111C11.0497 75.4972 9.79009 72.7459 8.79887 69.894L7.58887 70.169Z" fill="white"/>
<path d="M54.2294 5.5989C56.093 5.59911 57.955 5.70562 59.8064 5.9179L60.0044 4.8179C58.0891 4.56768 56.1609 4.42812 54.2294 4.3999C52.3919 4.40415 50.5559 4.50696 48.7294 4.7079L48.9714 5.8079C50.7192 5.6452 52.4743 5.57544 54.2294 5.5989Z" fill="white"/>
<path d="M94.9297 79.706L95.9087 80.366C97.4771 77.926 98.8209 75.3488 99.9237 72.666L98.8237 72.281C97.7464 74.8656 96.4434 77.3503 94.9297 79.706Z" fill="white"/>
<path d="M70.675 13.442C71.282 13.3612 71.8559 13.118 72.336 12.738C72.767 12.38 73.0937 11.9127 73.282 11.385C73.519 10.8124 73.5539 10.1761 73.381 9.58102C73.2383 9.09082 72.969 8.64691 72.6 8.29402C72.1219 7.85568 71.6107 7.45482 71.071 7.09502C70.532 6.72102 70.125 6.40202 69.839 6.16002C69.5653 5.92747 69.3504 5.63347 69.212 5.30202C69.0766 4.94786 69.0766 4.55618 69.212 4.20202C69.2857 3.95196 69.4165 3.72244 69.594 3.53155C69.7715 3.34066 69.991 3.19362 70.235 3.10202C70.7571 2.91109 71.3299 2.91109 71.852 3.10202C72.4127 3.26617 72.8964 3.62502 73.216 4.11402C73.3466 4.31731 73.4352 4.54462 73.4768 4.78262C73.5183 5.02062 73.512 5.26452 73.458 5.50002L75.02 6.05002C75.1317 5.64247 75.1551 5.21579 75.0887 4.79846C75.0223 4.38114 74.8677 3.98279 74.635 3.63002C74.1063 2.85002 73.3319 2.26922 72.435 1.98002C71.7846 1.74216 71.0903 1.64834 70.4 1.70502C69.8021 1.74662 69.229 1.96058 68.75 2.32102C68.2796 2.68571 67.9307 3.18423 67.749 3.75102C67.5108 4.30256 67.4606 4.91711 67.606 5.50002C67.7545 5.98646 68.032 6.42361 68.409 6.76502C68.8883 7.19532 69.3994 7.58877 69.938 7.94202C70.466 8.30502 70.884 8.61302 71.181 8.86602C71.4669 9.11 71.6895 9.41945 71.83 9.76802C71.9644 10.1224 71.9644 10.5137 71.83 10.868C71.7447 11.1242 71.6009 11.357 71.41 11.548C71.219 11.7389 70.9862 11.8827 70.73 11.968C70.1562 12.1872 69.5218 12.1872 68.948 11.968C68.3438 11.8009 67.8276 11.4068 67.507 10.868C67.262 10.4014 67.1992 9.86032 67.331 9.35002L65.857 8.80002C65.6766 9.36905 65.6766 9.97998 65.857 10.549C66.017 11.1385 66.3323 11.6741 66.77 12.1C67.2824 12.5904 67.8937 12.9654 68.563 13.2C69.2367 13.4521 69.9618 13.5352 70.675 13.442Z" fill="white"/>
<path d="M85.1836 11.9568C84.873 11.388 84.4272 10.9045 83.8856 10.5488C83.3831 10.2114 82.8121 9.98978 82.2136 9.89976C81.662 9.81689 81.0983 9.88926 80.5856 10.1088L83.0826 6.39076L81.8286 5.49976L74.9756 15.6968L76.2296 16.5328L79.0346 12.3638C79.4335 11.6944 80.0761 11.2056 80.8276 10.9998C81.1733 10.9251 81.5311 10.9258 81.8765 11.0017C82.222 11.0776 82.547 11.227 82.8296 11.4398C83.1174 11.6208 83.364 11.8603 83.5534 12.1426C83.7429 12.4249 83.871 12.7438 83.9296 13.0788C84.0136 13.8298 83.8004 14.5839 83.3356 15.1798L80.4646 19.4478L81.6966 20.2838L84.6886 15.8838C85.125 15.2807 85.4013 14.5767 85.4916 13.8378C85.5904 13.194 85.4826 12.5354 85.1836 11.9568Z" fill="white"/>
<path d="M88.6595 26.9278C89.4125 27.2035 90.2264 27.2682 91.0135 27.1148C91.8639 26.939 92.6507 26.536 93.2905 25.9488C93.9531 25.3971 94.4579 24.6798 94.7535 23.8698C95.0231 23.1301 95.0765 22.3288 94.9075 21.5598C94.7205 20.7666 94.3434 20.0307 93.8088 19.4156C93.2742 18.8004 92.598 18.3245 91.8385 18.0288C91.0923 17.7559 90.2852 17.695 89.5065 17.8528C88.6671 18.0412 87.8905 18.4428 87.2515 19.0188C86.6014 19.5796 86.1021 20.2944 85.7995 21.0978C85.5226 21.8355 85.4615 22.6367 85.6235 23.4078C85.7999 24.1989 86.179 24.9305 86.7235 25.5308C87.242 26.1508 87.9076 26.6311 88.6595 26.9278ZM87.1195 21.7248C87.3593 21.1318 87.7363 20.604 88.2195 20.1848C88.6952 19.7444 89.2739 19.4305 89.9025 19.2718C90.4245 19.1503 90.9703 19.1808 91.4755 19.3598C91.9737 19.5472 92.4164 19.8575 92.7625 20.2618C93.1194 20.6555 93.3727 21.1318 93.4995 21.6478C93.6158 22.1791 93.5777 22.7326 93.3895 23.2428C93.1595 23.8443 92.7811 24.3779 92.2895 24.7938C91.8128 25.2322 91.2282 25.5359 90.5955 25.6738C90.0571 25.7932 89.4957 25.755 88.9785 25.5638C88.4816 25.374 88.0395 25.0641 87.6915 24.6618C87.3405 24.273 87.0978 23.7989 86.9875 23.2868C86.8737 22.7647 86.9197 22.2204 87.1195 21.7248Z" fill="white"/>
<path d="M88.11 34.5292L93.5 31.9002C93.1467 32.4306 92.9416 33.0458 92.906 33.6822C92.8545 34.3955 92.9951 35.1095 93.313 35.7502C93.6406 36.4542 94.1588 37.0525 94.809 37.4772C95.4647 37.9044 96.2265 38.1406 97.009 38.1592C97.8639 38.1766 98.7099 37.984 99.473 37.5982C100.247 37.2519 100.921 36.7144 101.431 36.0362C101.891 35.4255 102.17 34.6972 102.234 33.9352C102.291 33.1778 102.147 32.4189 101.816 31.7352C101.519 31.0747 101.048 30.5079 100.452 30.0962C99.9362 29.7298 99.3329 29.5059 98.703 29.4472L100.21 28.7322L99.561 27.3682L87.461 33.1542L88.11 34.5292ZM94.105 33.3742C94.159 32.8402 94.3566 32.3308 94.677 31.9002C95.0508 31.3995 95.5376 30.9941 96.0976 30.7169C96.6576 30.4398 97.2752 30.2987 97.9 30.3052C98.4545 30.3234 98.9924 30.4989 99.451 30.8112C99.8961 31.1166 100.253 31.5339 100.485 32.0212C100.72 32.5106 100.826 33.0521 100.793 33.5942C100.756 34.1436 100.561 34.6707 100.232 35.1122C99.8473 35.5895 99.3529 35.9669 98.791 36.2122C98.2299 36.4985 97.6056 36.6385 96.976 36.6192C96.4222 36.6067 95.8837 36.4348 95.425 36.1242C94.9769 35.8127 94.62 35.3875 94.391 34.8922C94.1624 34.4206 94.0637 33.8966 94.105 33.3742Z" fill="white"/>
<path d="M98.4614 42.251C98.1194 42.2956 97.7904 42.4104 97.4951 42.5884C97.1998 42.7663 96.9445 43.0035 96.7454 43.285C96.4497 43.9034 96.3986 44.6106 96.6024 45.265L96.8994 46.585L98.1424 46.299L97.9004 45.199C97.7773 44.8691 97.7773 44.5059 97.9004 44.176C98.1128 43.9114 98.4212 43.7414 98.7584 43.703L103.983 42.504L104.511 44.814L105.721 44.539L105.193 42.229L107.393 41.712L107.063 40.249L104.863 40.755L104.599 39.655L103.4 39.908L103.664 41.008L98.4614 42.251Z" fill="white"/>
<path d="M101.365 50.2479L101.486 57.5189H102.399C103.17 57.5153 103.927 57.3147 104.599 56.9359C105.245 56.5739 105.775 56.0361 106.128 55.3849C106.509 54.6909 106.706 53.9107 106.7 53.1189C106.7 52.2978 106.488 51.4906 106.084 50.7759C105.69 50.1076 105.114 49.5657 104.423 49.2139C103.644 48.857 102.794 48.6805 101.937 48.6977C101.08 48.7148 100.237 48.9251 99.4729 49.3129C98.7871 49.6905 98.2226 50.2551 97.8449 50.9409C97.466 51.6583 97.2802 52.462 97.3059 53.2729C97.2883 54.2462 97.5939 55.1979 98.1749 55.9789C98.7232 56.6909 99.5002 57.1921 100.375 57.3979V55.7699C99.8262 55.6435 99.3394 55.3281 98.9999 54.8789C98.6768 54.3981 98.508 53.8301 98.5159 53.2509C98.4982 52.8684 98.5572 52.4862 98.6894 52.1269C98.8217 51.7675 99.0244 51.4383 99.2858 51.1584C99.5471 50.8786 99.8618 50.6539 100.211 50.4975C100.561 50.3412 100.938 50.2563 101.321 50.2479H101.365ZM104.665 51.1279C105.159 51.6549 105.431 52.3524 105.424 53.0749C105.441 53.5755 105.339 54.0731 105.127 54.5269C104.932 54.9751 104.611 55.3572 104.203 55.6269C103.753 55.8927 103.24 56.0332 102.718 56.0339L102.63 50.2919C103.38 50.3048 104.096 50.6039 104.632 51.1279H104.665Z" fill="white"/>
<path d="M105.819 62.5791L106.05 61.4791L104.818 61.2371L104.598 62.3921L99.3404 61.3581C99.0069 61.2626 98.6576 61.2358 98.3134 61.2792C97.9693 61.3227 97.6376 61.4356 97.3384 61.6111C96.8225 62.0595 96.4897 62.682 96.4034 63.3601L96.1504 64.6911L97.4044 64.9441L97.6134 63.8441C97.6436 63.4946 97.8094 63.1708 98.0754 62.9421C98.2213 62.8601 98.3826 62.809 98.5491 62.792C98.7156 62.7749 98.8839 62.7923 99.0434 62.8431L104.301 63.8771L103.85 66.2091L105.071 66.4511L105.522 64.1191L107.722 64.5591L108.008 63.0741L105.819 62.5791Z" fill="white"/>
<path d="M86.207 82.951L89.628 86.372L88.055 88C87.6402 88.3488 87.2983 88.7762 87.0491 89.2576C86.7999 89.7389 86.6483 90.2648 86.603 90.805C86.6117 91.7104 86.979 92.5754 87.6244 93.2104C88.2698 93.8455 89.1406 94.1988 90.046 94.193C91.1177 94.0842 92.1082 93.5732 92.818 92.763L95.458 90.112L87.285 81.939L86.207 82.951ZM93.5 90.255L91.927 91.828C90.827 92.928 89.727 93.06 88.627 92.048C88.4203 91.852 88.2575 91.6143 88.1494 91.3508C88.0413 91.0872 87.9904 90.8037 88 90.519C88.0853 89.8586 88.415 89.2542 88.924 88.825L90.497 87.252L93.5 90.255Z" fill="white"/>
<path d="M78.21 89.782L80.927 93.907C81.939 95.447 81.7373 96.679 80.322 97.6031L79.992 97.823L80.85 99.132C81.3832 98.8 81.8195 98.3333 82.115 97.779C82.3693 97.2727 82.4688 96.7026 82.401 96.14L83.215 97.372L84.469 96.547L79.475 88.946L78.21 89.782Z" fill="white"/>
<path d="M74.1729 94.6879C73.5826 94.1728 72.8575 93.8369 72.0829 93.7199C71.2821 93.6134 70.4674 93.7157 69.7179 94.0169C68.8154 94.3479 68.0439 94.9613 67.5179 95.7659C67.0495 96.5176 66.8444 97.4038 66.9349 98.2849L68.4529 97.7019C68.4281 97.1781 68.5748 96.6606 68.8709 96.2279C69.205 95.7574 69.6782 95.4035 70.2239 95.2159C70.5723 95.07 70.9462 94.9949 71.3239 94.9949C71.7016 94.9949 72.0755 95.07 72.4239 95.2159C73.1251 95.5214 73.6782 96.0903 73.9639 96.7999L67.1879 99.4289C67.2667 99.7237 67.3621 100.014 67.4739 100.298C67.7402 101.031 68.1911 101.682 68.7829 102.19C69.3474 102.672 70.0385 102.981 70.7739 103.081C71.5684 103.188 72.377 103.081 73.1169 102.773C73.8841 102.492 74.566 102.019 75.0969 101.398C75.5908 100.798 75.9004 100.069 75.9879 99.2969C76.067 98.4465 75.9386 97.5897 75.6139 96.7999C75.3227 95.9839 74.8265 95.2566 74.1729 94.6879ZM74.2719 100.188C73.9481 100.833 73.3889 101.329 72.7099 101.574C72.2451 101.757 71.7449 101.832 71.2469 101.794C70.7703 101.758 70.315 101.582 69.9379 101.288C69.527 100.966 69.2145 100.535 69.0359 100.045L74.3929 97.9659C74.6368 98.6912 74.5935 99.4825 74.2719 100.177V100.188Z" fill="white"/>
<path d="M61.6772 96.8001L61.8643 101.805C61.944 102.59 61.724 103.376 61.2482 104.005C61.0176 104.267 60.7331 104.477 60.4142 104.619C60.0953 104.761 59.7495 104.833 59.4002 104.83C59.0629 104.859 58.7234 104.815 58.4046 104.701C58.0857 104.587 57.7951 104.406 57.5522 104.17C57.0499 103.609 56.7821 102.877 56.8042 102.124L56.6062 96.9761L55.1102 97.0421L55.3082 102.047C55.388 102.832 55.168 103.618 54.6922 104.247C54.4635 104.512 54.1797 104.725 53.8605 104.869C53.5414 105.013 53.1945 105.087 52.8442 105.083C52.5086 105.112 52.1708 105.067 51.8537 104.954C51.5367 104.84 51.248 104.659 51.0072 104.423C50.4992 103.861 50.2274 103.124 50.2482 102.366L50.0502 97.2291H48.5652L48.7632 102.586C48.7668 103.331 48.9639 104.063 49.3352 104.709C49.6474 105.258 50.1193 105.699 50.6882 105.974C51.286 106.254 51.9432 106.382 52.6022 106.348C53.2905 106.326 53.9598 106.117 54.5382 105.743C55.0971 105.376 55.5187 104.835 55.7372 104.203C56.0246 104.821 56.5028 105.33 57.1012 105.655C57.7313 105.983 58.4381 106.135 59.1472 106.095C59.7256 106.08 60.2917 105.925 60.7972 105.644C61.2774 105.389 61.6801 105.009 61.9633 104.544V105.853H63.4812L63.1292 96.7561L61.6772 96.8001Z" fill="white"/>
<path d="M42.2841 106.271C42.0203 106.219 41.7465 106.273 41.5221 106.421C41.2977 106.569 41.1407 106.8 41.0851 107.063C41.0521 107.193 41.0458 107.328 41.0666 107.46C41.0874 107.593 41.1349 107.72 41.2061 107.833C41.2757 107.947 41.3675 108.046 41.4759 108.124C41.5843 108.202 41.7072 108.257 41.8374 108.287C41.9676 108.317 42.1024 108.32 42.2339 108.297C42.3654 108.274 42.4909 108.225 42.6031 108.152C42.7204 108.081 42.822 107.987 42.9014 107.876C42.9809 107.764 43.0366 107.637 43.0651 107.503C43.1156 107.224 43.0565 106.936 42.9001 106.7C42.7582 106.483 42.5373 106.329 42.2841 106.271Z" fill="white"/>
<path d="M43.9088 95.8041L41.8965 104.676L43.3662 105.009L45.3785 96.1375L43.9088 95.8041Z" fill="white"/>
<path d="M38.7316 94.6C38.3106 94.0857 37.7707 93.6817 37.1586 93.423C36.6256 93.1758 36.0403 93.0625 35.4536 93.093C34.903 93.1144 34.3695 93.2897 33.9136 93.599L34.4526 92.367L33.0776 91.762L29.3926 100.1L30.8006 100.65L32.8246 96.085C33.0915 95.342 33.6355 94.731 34.3426 94.38C34.6708 94.2506 35.0225 94.1915 35.3749 94.2067C35.7274 94.2218 36.0727 94.3108 36.3886 94.468C36.7112 94.5899 37.0038 94.7797 37.2467 95.0245C37.4896 95.2693 37.6771 95.5634 37.7966 95.887C37.9088 96.2493 37.9481 96.6303 37.9122 97.0079C37.8764 97.3855 37.766 97.7523 37.5876 98.087L35.4756 102.74L36.8396 103.345L39.0396 98.472C39.3717 97.7887 39.516 97.0294 39.4576 96.272C39.3859 95.6552 39.1333 95.0734 38.7316 94.6Z" fill="white"/>
<path d="M28.9851 89.3642L25.5751 93.0382C25.0692 93.6427 24.3547 94.0353 23.5731 94.1382C23.2261 94.1567 22.8791 94.1015 22.5549 93.9764C22.2308 93.8513 21.9367 93.659 21.6921 93.4122C21.4451 93.1922 21.2471 92.9229 21.1106 92.6217C20.9742 92.3204 20.9025 91.9939 20.9001 91.6632C20.942 90.9089 21.2729 90.1998 21.8241 89.6832L25.3001 85.9212L24.2001 84.8982L20.7791 88.5612C20.2797 89.1736 19.5618 89.568 18.7771 89.6612C18.4296 89.6847 18.0811 89.6319 17.7562 89.5065C17.4312 89.3811 17.1377 89.1861 16.8961 88.9352C16.6386 88.719 16.4307 88.4499 16.2865 88.1462C16.1422 87.8425 16.065 87.5113 16.0601 87.1752C16.1037 86.4182 16.4341 85.7062 16.9841 85.1842L20.4931 81.4002L19.3931 80.3882L15.7301 84.3042C15.2099 84.8321 14.8316 85.4829 14.6301 86.1962C14.4475 86.8024 14.4475 87.449 14.6301 88.0552C14.8591 88.676 15.2368 89.2312 15.7301 89.6722C16.2293 90.1466 16.8497 90.4739 17.5231 90.6182C18.1759 90.7639 18.8589 90.6824 19.4591 90.3872C19.2318 91.0383 19.2279 91.7466 19.4481 92.4002C19.6483 93.0758 20.0285 93.6842 20.5481 94.1602C20.9622 94.562 21.4682 94.8565 22.0221 95.0182C22.5547 95.1664 23.1176 95.1664 23.6501 95.0182L22.7591 95.9752L23.8591 97.0092L30.0631 90.4092L28.9851 89.3642Z" fill="white"/>
<path d="M15.7627 60.258L9.80067 60.808C10.3122 60.4468 10.7246 59.9625 10.9997 59.4C11.2905 58.7441 11.4043 58.0235 11.3297 57.31C11.2654 56.5397 10.9915 55.8017 10.5377 55.176C10.075 54.55 9.44623 54.0661 8.72267 53.779C7.92973 53.4667 7.07331 53.3497 6.22567 53.438C5.37694 53.5015 4.55702 53.7735 3.83867 54.23C3.19324 54.6486 2.67733 55.2388 2.34893 55.9345C2.02053 56.6302 1.89265 57.4036 1.97967 58.168C2.02859 58.8902 2.27184 59.5857 2.68367 60.181C3.04798 60.6967 3.53588 61.1127 4.10267 61.391L2.41967 61.49L2.55167 62.986L15.9057 61.765L15.7627 60.258ZM8.67867 60.5C8.15246 60.8351 7.55173 61.0354 6.92967 61.083C6.31197 61.1569 5.68571 61.0658 5.11467 60.819C4.60245 60.6087 4.16011 60.2579 3.83867 59.807C3.52499 59.3632 3.33861 58.8421 3.29967 58.3C3.24262 57.7589 3.32991 57.2124 3.55267 56.716C3.78978 56.2087 4.17276 55.7836 4.65267 55.495C5.17665 55.1552 5.7786 54.9545 6.40167 54.912C7.02916 54.8384 7.66505 54.9255 8.24967 55.165C8.76174 55.3702 9.20448 55.7175 9.52567 56.166C9.83642 56.6113 10.0225 57.1316 10.0647 57.673C10.1217 58.2116 10.0305 58.7555 9.80067 59.246C9.55382 59.7624 9.16453 60.1974 8.67867 60.5Z" fill="white"/>
<path d="M4.04788 48.917C4.72051 49.4412 5.51544 49.7857 6.35788 49.918C7.1939 50.088 8.05885 50.0502 8.87688 49.808C9.61997 49.5946 10.2874 49.1751 10.8019 48.598C11.3117 48.0187 11.6539 47.3113 11.7919 46.552C11.936 45.8444 11.8866 45.111 11.6489 44.429C11.4356 43.8188 11.0543 43.2811 10.5489 42.878L12.2099 43.186L12.4959 41.679L3.55288 40.0291L3.29988 41.5251L4.94988 41.8001C4.35269 42.0208 3.82759 42.4013 3.43188 42.9C2.96665 43.4568 2.66236 44.13 2.55188 44.847C2.40465 45.6044 2.46547 46.3875 2.72788 47.113C2.99396 47.8241 3.45064 48.4483 4.04788 48.917ZM3.89388 44.77C3.99287 44.2356 4.22774 43.7355 4.57588 43.318C4.93585 42.9041 5.40455 42.5993 5.92888 42.4381C6.52368 42.2525 7.15606 42.2222 7.76588 42.35C8.38534 42.4546 8.97031 42.7074 9.47088 43.087C9.90713 43.4264 10.2357 43.8849 10.4169 44.407C10.6001 44.9181 10.6419 45.4692 10.5379 46.002C10.4583 46.5309 10.238 47.0286 9.89988 47.443C9.53991 47.857 9.07121 48.1618 8.54688 48.323C7.91573 48.5182 7.24447 48.5448 6.59988 48.4C5.98655 48.3041 5.40753 48.0543 4.91688 47.674C4.48668 47.3335 4.15924 46.8804 3.97088 46.365C3.80696 45.8491 3.78042 45.2994 3.89388 44.77Z" fill="white"/>
<path d="M14.3991 37.0699L9.90012 35.1119C8.21712 34.3859 7.70012 33.2529 8.37112 31.6909L8.53612 31.3279L7.09512 30.7119C6.83436 31.2831 6.72815 31.9128 6.78712 32.5379C6.83155 33.1085 7.04613 33.6526 7.40312 34.0999L6.05012 33.4729L5.50012 34.8589L13.8051 38.4999L14.3991 37.0699Z" fill="white"/>
<path d="M8.80002 27.7311L9.90002 28.4021L10.538 27.4121L15.048 30.3161C15.3199 30.5301 15.6337 30.6847 15.969 30.77C16.3044 30.8552 16.6539 30.8692 16.995 30.8111C17.6437 30.5922 18.1859 30.1364 18.513 29.5351L19.239 28.4351L18.139 27.7531L17.6 28.6001C17.4395 28.913 17.1693 29.1558 16.841 29.2821C16.5019 29.3171 16.1625 29.2184 15.895 29.0071L11.396 26.1031L12.628 24.2001L11.528 23.5291L10.296 25.4651L8.37102 24.2001L7.54602 25.4761L9.47102 26.7191L8.80002 27.7311Z" fill="white"/>
<path d="M21.8902 25.0801L18.3372 21.5161C17.7372 21.0011 17.3654 20.2694 17.3032 19.4811C17.299 19.1296 17.3693 18.7811 17.5096 18.4588C17.6499 18.1365 17.857 17.8475 18.1172 17.6111C18.3479 17.3563 18.6298 17.153 18.9445 17.0147C19.2591 16.8763 19.5995 16.8059 19.9432 16.8081C20.6957 16.8744 21.3933 17.2292 21.8902 17.7981L25.5312 21.4391L26.6312 20.3391L22.8362 16.5441C22.489 16.1462 22.0638 15.8238 21.5871 15.5967C21.1103 15.3697 20.592 15.2429 20.0642 15.2241C19.5589 15.2459 19.0633 15.3703 18.6076 15.5896C18.1518 15.809 17.7455 16.1188 17.4132 16.5001C17.0029 16.9045 16.6905 17.3974 16.5002 17.9411C16.3145 18.4598 16.2802 19.0206 16.4012 19.5581L15.4662 18.7001L14.3662 19.8001L20.7902 26.2351L21.8902 25.0801Z" fill="white"/>
<path d="M26.4 14.7399C26.8164 15.4945 27.4184 16.1305 28.149 16.5879C28.807 17.0035 29.5707 17.2211 30.349 17.2149C31.1558 17.1961 31.9441 16.9687 32.637 16.5549C33.493 16.0898 34.1759 15.3606 34.584 14.4759C34.9362 13.6639 35.0022 12.7563 34.771 11.9019L33.363 12.7159C33.4672 13.2288 33.4015 13.7616 33.176 14.2339C32.9267 14.7295 32.5312 15.1366 32.043 15.3999C31.4065 15.7952 30.6419 15.9292 29.909 15.7739C29.5247 15.6832 29.1624 15.5169 28.8432 15.2846C28.524 15.0523 28.2544 14.7586 28.05 14.4209L34.342 10.7689C34.199 10.4719 34.067 10.2079 33.924 9.95489C33.5406 9.27576 32.992 8.70443 32.329 8.29389C31.6951 7.91227 30.9678 7.71424 30.228 7.72189C29.4268 7.74278 28.6453 7.9742 27.962 8.39289C27.2473 8.78987 26.6483 9.36611 26.224 10.0649C25.8295 10.7287 25.6383 11.4936 25.674 12.2649C25.7039 13.1378 25.9536 13.9891 26.4 14.7399ZM27.203 11.1869C27.4381 10.4853 27.9399 9.90441 28.6 9.56989C29.0324 9.31342 29.5178 9.15916 30.019 9.11889C30.4963 9.08408 30.9736 9.18717 31.394 9.41589C31.857 9.67152 32.2383 10.0529 32.494 10.5159L27.5 13.3979C27.1271 12.7238 27.0286 11.9318 27.225 11.1869H27.203Z" fill="white"/>
<path d="M38.9612 4.08104C38.5804 4.49687 38.3349 5.01857 38.2572 5.57704L37.7952 4.18004L36.3652 4.64204L39.1702 13.288L40.6002 12.826L39.0712 8.11804C38.4992 6.36904 39.0272 5.23604 40.6992 4.71904L41.0732 4.59804L40.6002 3.11304C39.9738 3.27527 39.4057 3.61076 38.9612 4.08104Z" fill="white"/>
</svg>
